<?xml version="1.0" encoding="UTF-8"?>
<svg width="204px" height="31px" viewBox="0 0 204 31" version="1.1" xmlns="http://www.w3.org/2000/svg" xmlns:xlink="http://www.w3.org/1999/xlink">
    <!-- Generator: Sketch 52.6 (67491) - http://www.bohemiancoding.com/sketch -->
    <title>Logo@1x</title>
    <desc>Created with Sketch.</desc>
    <defs>
        <path d="M6.272,17.5502222 L7.456,17.5502222 C8.69333952,17.5502222 9.64266336,17.2942248 10.304,16.7822222 C10.9653366,16.2702197 11.296,15.534227 11.296,14.5742222 C11.296,13.6142174 10.9653366,12.8782248 10.304,12.3662222 C9.64266336,11.8542197 8.69333952,11.5982222 7.456,11.5982222 L6.272,11.5982222 L6.272,17.5502222 Z M20.064,30.8942222 L12.256,30.8942222 L6.272,21.6142222 L6.272,30.8942222 L0,30.8942222 L0,6.76622222 L9.76,6.76622222 C11.1040067,6.76622222 12.2773283,6.96355358 13.28,7.35822222 C14.2826717,7.75289086 15.1093301,8.29155214 15.76,8.97422222 C16.4106699,9.6568923 16.9013317,10.4462177 17.232,11.3422222 C17.5626683,12.2382267 17.728,13.1982171 17.728,14.2222222 C17.728,16.0568981 17.2853378,17.5448832 16.4,18.6862222 C15.5146622,19.8275613 14.2080086,20.6008869 12.48,21.0062222 L20.064,30.8942222 Z M41.9342222,18.8302222 C41.9342222,19.790227 42.1155537,20.6755515 42.4782222,21.4862222 C42.8408907,22.2968929 43.3315525,23.0008859 43.9502222,23.5982222 C44.568892,24.1955585 45.2888848,24.6595539 46.1102222,24.9902222 C46.9315597,25.3208905 47.8008843,25.4862222 48.7182222,25.4862222 C49.6355601,25.4862222 50.5048848,25.3208905 51.3262222,24.9902222 C52.1475597,24.6595539 52.8728857,24.1955585 53.5022222,23.5982222 C54.1315587,23.0008859 54.6275537,22.2968929 54.9902222,21.4862222 C55.3528907,20.6755515 55.5342222,19.790227 55.5342222,18.8302222 C55.5342222,17.8702174 55.3528907,16.9848929 54.9902222,16.1742222 C54.6275537,15.3635515 54.1315587,14.6595585 53.5022222,14.0622222 C52.8728857,13.4648859 52.1475597,13.0008905 51.3262222,12.6702222 C50.5048848,12.3395539 49.6355601,12.1742222 48.7182222,12.1742222 C47.8008843,12.1742222 46.9315597,12.3395539 46.1102222,12.6702222 C45.2888848,13.0008905 44.568892,13.4648859 43.9502222,14.0622222 C43.3315525,14.6595585 42.8408907,15.3635515 42.4782222,16.1742222 C42.1155537,16.9848929 41.9342222,17.8702174 41.9342222,18.8302222 Z M35.3742222,18.8302222 C35.3742222,17.0382133 35.7048856,15.3688966 36.3662222,13.8222222 C37.0275589,12.2755478 37.944883,10.926228 39.1182222,9.77422222 C40.2915614,8.62221646 41.6942141,7.72089214 43.3262222,7.07022222 C44.9582304,6.4195523 46.7555457,6.09422222 48.7182222,6.09422222 C50.6595653,6.09422222 52.4515473,6.4195523 54.0942222,7.07022222 C55.7368971,7.72089214 57.1502163,8.62221646 58.3342222,9.77422222 C59.5182281,10.926228 60.4408856,12.2755478 61.1022222,13.8222222 C61.7635589,15.3688966 62.0942222,17.0382133 62.0942222,18.8302222 C62.0942222,20.6222312 61.7635589,22.2915478 61.1022222,23.8382222 C60.4408856,25.3848966 59.5182281,26.7342165 58.3342222,27.8862222 C57.1502163,29.038228 55.7368971,29.9395523 54.0942222,30.5902222 C52.4515473,31.2408921 50.6595653,31.5662222 48.7182222,31.5662222 C46.7555457,31.5662222 44.9582304,31.2408921 43.3262222,30.5902222 C41.6942141,29.9395523 40.2915614,29.038228 39.1182222,27.8862222 C37.944883,26.7342165 37.0275589,25.3848966 36.3662222,23.8382222 C35.7048856,22.2915478 35.3742222,20.6222312 35.3742222,18.8302222 Z M33.7777778,4.84977778 C33.7777778,4.44444242 33.857777,4.05511298 34.0177778,3.68177778 C34.1777786,3.30844258 34.4017763,2.97777922 34.6897778,2.68977778 C34.9777792,2.40177634 35.3137759,2.17777858 35.6977778,2.01777778 C36.0817797,1.85777698 36.487109,1.77777778 36.9137778,1.77777778 C37.3404466,1.77777778 37.7404426,1.85777698 38.1137778,2.01777778 C38.487113,2.17777858 38.8177763,2.39644306 39.1057778,2.67377778 C39.3937792,2.9511125 39.6231103,3.28177586 39.7937778,3.66577778 C39.9644453,4.0497797 40.0497778,4.45510898 40.0497778,4.88177778 C40.0497778,5.32978002 39.9644453,5.74044258 39.7937778,6.11377778 C39.6231103,6.48711298 39.3991125,6.81777634 39.1217778,7.10577778 C38.8444431,7.39377922 38.5137797,7.61777698 38.1297778,7.77777778 C37.7457759,7.93777858 37.3511131,8.01777778 36.9457778,8.01777778 C36.0284399,8.01777778 35.2711141,7.70844754 34.6737778,7.08977778 C34.0764415,6.47110802 33.7777778,5.72444882 33.7777778,4.84977778 Z M56.8888889,4.84977778 C56.8888889,4.44444242 56.9688881,4.05511298 57.1288889,3.68177778 C57.2888897,3.30844258 57.5128874,2.97777922 57.8008889,2.68977778 C58.0888903,2.40177634 58.424887,2.17777858 58.8088889,2.01777778 C59.1928908,1.85777698 59.5982201,1.77777778 60.0248889,1.77777778 C60.4515577,1.77777778 60.8515537,1.85777698 61.2248889,2.01777778 C61.5982241,2.17777858 61.9288874,2.39644306 62.2168889,2.67377778 C62.5048903,2.9511125 62.7342214,3.28177586 62.9048889,3.66577778 C63.0755564,4.0497797 63.1608889,4.45510898 63.1608889,4.88177778 C63.1608889,5.32978002 63.0755564,5.74044258 62.9048889,6.11377778 C62.7342214,6.48711298 62.5102236,6.81777634 62.2328889,7.10577778 C61.9555542,7.39377922 61.6248908,7.61777698 61.2408889,7.77777778 C60.856887,7.93777858 60.4622242,8.01777778 60.0568889,8.01777778 C59.139551,8.01777778 58.3822252,7.70844754 57.7848889,7.08977778 C57.1875526,6.47110802 56.8888889,5.72444882 56.8888889,4.84977778 Z M86.5564444,17.5502222 L87.7404444,17.5502222 C88.977784,17.5502222 89.9271078,17.2942248 90.5884444,16.7822222 C91.2497811,16.2702197 91.5804444,15.534227 91.5804444,14.5742222 C91.5804444,13.6142174 91.2497811,12.8782248 90.5884444,12.3662222 C89.9271078,11.8542197 88.977784,11.5982222 87.7404444,11.5982222 L86.5564444,11.5982222 L86.5564444,17.5502222 Z M100.348444,30.8942222 L92.5404444,30.8942222 L86.5564444,21.6142222 L86.5564444,30.8942222 L80.2844444,30.8942222 L80.2844444,6.76622222 L90.0444444,6.76622222 C91.3884512,6.76622222 92.5617728,6.96355358 93.5644444,7.35822222 C94.5671161,7.75289086 95.3937745,8.29155214 96.0444444,8.97422222 C96.6951144,9.6568923 97.1857761,10.4462177 97.5164444,11.3422222 C97.8471128,12.2382267 98.0124444,13.1982171 98.0124444,14.2222222 C98.0124444,16.0568981 97.5697822,17.5448832 96.6844444,18.6862222 C95.7991067,19.8275613 94.4924531,20.6008869 92.7644444,21.0062222 L100.348444,30.8942222 Z M120.554667,6.76622222 L126.378667,21.4542222 L132.234667,6.76622222 L139.050667,6.76622222 L128.874667,30.8942222 L123.882667,30.8942222 L113.738667,6.76622222 L120.554667,6.76622222 Z M162.072889,6.76622222 L162.072889,30.8942222 L155.800889,30.8942222 L155.800889,6.76622222 L162.072889,6.76622222 Z M187.623111,16.7182222 L195.271111,6.76622222 L203.015111,6.76622222 L193.447111,18.1902222 L203.911111,30.8942222 L195.783111,30.8942222 L187.623111,20.4302222 L187.623111,30.8942222 L181.351111,30.8942222 L181.351111,6.76622222 L187.623111,6.76622222 L187.623111,16.7182222 Z" id="path-1"></path>
    </defs>
    <g id="Symbols" stroke="none" stroke-width="1" fill="none" fill-rule="evenodd">
        <g id="Header-/-On-white-BG" transform="translate(-120.000000, -25.000000)">
            <g id="Logo" transform="translate(120.000000, 24.000000)">
                <mask id="mask-2" fill="white">
                    <use xlink:href="#path-1"></use>
                </mask>
                <use id="Mask" fill="#333333" fill-rule="evenodd" xlink:href="#path-1"></use>
                <g id="Color-/-Blue" mask="url(#mask-2)" fill="#0024AA" fill-rule="nonzero">
                    <rect id="Blue" x="0" y="0" width="203.759717" height="31.9623086"></rect>
                </g>
            </g>
        </g>
    </g>
</svg>